#!OML:ASF F:\VICON\USERDATA\INSTALL\rory3\rory3.ASF
:FULLY-SPECIFIED
:DEGREES
2210
root -0.00112705 18.6635 6.00338 0.438317 9.38113 -0.176683
lowerback 4.78695 0.260969 -1.85522
upperback 0.281908 0.18971 -2.43605
thorax -2.39244 0.103881 -1.4776
lowerneck -8.77466 -4.67477 -6.71716
upperneck -12.5983 -5.23683 6.84161
head -2.17825 -2.42425 3.36693
rclavicle -2.35063e-014 3.65764e-014
rhumerus 27.0392 -37.3365 -39.9085
rradius 48.7186
rwrist 11.678
rhand -62.054 353.96
rfingers 7.12502
rthumb -34.105 -752.801
lclavicle -2.35063e-014 3.65764e-014
lhumerus -13.2738 -4.12461 78.0487
lradius 40.1918
lwrist -10.6175
lhand -26.1622 18.2189
lfingers 7.12502
lthumb 0.389047 48.1983
rfemur -2.27903 26.0943 11.1265
rtibia 13.5272
rfoot -12.1199 -19.866
rtoes -11.4154
lfemur 3.04146 -13.8909 -9.88822
ltibia 8.7994
lfoot -12.0212 20.4624
ltoes -10.9993
2211
root 0.00462539 18.6657 6.00612 0.414543 9.77914 -0.293676
lowerback 4.79757 0.24861 -1.81236
upperback 0.254813 0.172446 -2.52137
thorax -2.42617 0.0946204 -1.58873
lowerneck -8.88252 -4.63835 -6.62305
upperneck -12.4435 -5.20741 6.60444
head -2.11789 -2.40768 3.26021
rclavicle -3.37437e-014 3.18055e-015
rhumerus 27.8566 -37.5137 -39.7967
rradius 48.3809
rwrist 12.0787
rhand -62.0795 351.589
rfingers 7.12502
rthumb -34.1292 -755.166
lclavicle -3.37437e-014 3.18055e-015
lhumerus -13.1446 -4.32541 78.4622
lradius 40.121
lwrist -10.5745
lhand -26.2528 18.1115
lfingers 7.12502
lthumb 0.30163 48.0911
rfemur -1.93482 26.1399 11.3298
rtibia 13.1942
rfoot -12.16 -20.2846
rtoes -11.0103
lfemur 2.86668 -13.9952 -9.69719
ltibia 8.8789
lfoot -11.8742 20.1622
ltoes -11.0566
2212
root 0.00671226 18.6655 6.00969 0.367474 10.1118 -0.40546
lowerback 4.84325 0.266131 -1.86149
upperback 0.23982 0.189604 -2.58546
thorax -2.46699 0.103622 -1.6289
lowerneck -9.01021 -4.59487 -6.54044
upperneck -12.3493 -5.16312 6.38059
head -2.0752 -2.38283 3.16237
rclavicle 5.96354e-016 2.70347e-014
rhumerus 28.7765 -37.7902 -39.8377
rradius 48.0361
rwrist 12.6365
rhand -62.1672 349.86
rfingers 7.12502
rthumb -34.2125 -756.877
lclavicle 5.96354e-016 2.70347e-014
lhumerus -12.8281 -4.54533 78.8748
lradius 39.8828
lwrist -10.5906
lhand -26.2288 18.2971
lfingers 7.12502
lthumb 0.324758 48.2766
rfemur -1.59646 26.2532 11.553
rtibia 12.8918
rfoot -12.2253 -20.6742
rtoes -10.7744
lfemur 2.70805 -14.0399 -9.50185
ltibia 9.01266
lfoot -11.7528 19.847
ltoes -11.3831
2213
root 0.0105562 18.6657 6.01273 0.370139 10.4856 -0.485077
lowerback 4.8487 0.262202 -1.88578
upperback 0.201847 0.179474 -2.67839
thorax -2.50917 0.0986301 -1.71081
lowerneck -9.03973 -4.57853 -6.47267
upperneck -12.3 -5.15743 6.18373
head -2.06067 -2.3784 3.08003
rclavicle 2.09718e-014 -1.90833e-014
rhumerus 29.7078 -38.079 -39.9675
rradius 47.6613
rwrist 13.1768
rhand -62.0545 350.114
rfingers 7.12502
rthumb -34.1055 -756.646
lclavicle 2.09718e-014 -1.90833e-014
lhumerus -12.4893 -4.7544 79.2561
lradius 39.6092
lwrist -10.6337
lhand -26.1734 18.3803
lfingers 7.12502
lthumb 0.378302 48.3597
rfemur -1.32059 26.2763 11.7041
rtibia 12.6103
rfoot -12.2213 -21.048
rtoes -10.5832
lfemur 2.44655 -14.1165 -9.33676
ltibia 9.22644
lfoot -11.7934 19.5046
ltoes -11.7913
2214
root 0.0173508 18.6649 6.01784 0.395373 10.8958 -0.451014
lowerback 4.75523 0.252862 -1.98103
upperback 0.193432 0.16201 -2.81879
thorax -2.46569 0.0903805 -1.80048
lowerneck -8.88004 -4.55467 -6.50613
upperneck -12.409 -5.1297 6.16818
head -2.12627 -2.36329 3.08919
rclavicle 2.17172e-014 1.27222e-014
rhumerus 30.6826 -38.3706 -40.159
rradius 47.265
rwrist 13.7427
rhand -61.821 350.76
rfingers 7.12502
rthumb -33.8837 -756.05
lclavicle 2.17172e-014 1.27222e-014
lhumerus -12.3485 -5.09836 79.6084
lradius 39.5617
lwrist -10.5523
lhand -26.0739 18.0975
lfingers 7.12502
lthumb 0.474408 48.0767
rfemur -1.03274 26.1954 11.7234
rtibia 12.3503
rfoot -12.2382 -21.4083
rtoes -10.5802
lfemur 2.1502 -14.2278 -9.31165
ltibia 9.52002
lfoot -11.8667 19.1934
ltoes -12.2089
2215
root 0.02539 18.6644 6.02463 0.414414 11.2605 -0.572967
lowerback 4.59844 0.237045 -1.9422
upperback 0.22083 0.148423 -2.90224
thorax -2.34948 0.0825939 -1.9062
lowerneck -8.73633 -4.487 -6.54623
upperneck -12.5804 -5.03838 6.17871
head -2.21399 -2.31593 3.11148
rclavicle 1.44119e-014 -2.38542e-014
rhumerus 32.0362 -38.7368 -40.7818
rradius 46.7898
rwrist 14.6513
rhand -61.7032 351.471
rfingers 7.12502
rthumb -33.7717 -755.363
lclavicle 1.44119e-014 -2.38542e-014
lhumerus -12.2731 -5.30051 79.9591
lradius 39.6271
lwrist -10.6527
lhand -25.9094 17.8679
lfingers 7.12502
lthumb 0.633204 47.8467
rfemur -0.779265 26.2037 11.899
rtibia 12.0912
rfoot -12.3063 -21.7756
rtoes -10.2448
lfemur 1.7965 -14.2891 -9.11857
ltibia 9.90839
lfoot -11.8979 18.915
ltoes -12.7425
2216
root 0.0326759 18.6636 6.02907 0.420779 11.6172 -0.65451
lowerback 4.53412 0.203374 -1.92634
upperback 0.275993 0.107043 -3.00071
thorax -2.25724 0.0613087 -2.01331
lowerneck -8.71639 -4.42501 -6.50342
upperneck -12.762 -4.95824 6.10031
head -2.28744 -2.27419 3.08428
rclavicle 1.44119e-015 -3.18055e-015
rhumerus 33.6029 -39.11 -41.718
rradius 46.3626
rwrist 15.7839
rhand -61.6538 352.151
rfingers 7.12502
rthumb -33.7248 -754.694
lclavicle 1.44119e-015 -3.18055e-015
lhumerus -12.0792 -5.51753 80.2673
lradius 39.676
lwrist -10.7077
lhand -26.1639 17.1809
lfingers 7.12502
lthumb 0.387459 47.1603
rfemur -0.514051 26.1376 12.0313
rtibia 11.8267
rfoot -12.328 -22.0449
rtoes -10.2358
lfemur 1.39528 -14.3465 -8.96666
ltibia 10.4029
lfoot -11.9755 18.6217
ltoes -13.009
2217
root 0.0379678 18.6625 6.03084 0.434222 11.9807 -0.737887
lowerback 4.52417 0.167694 -1.90171
upperback 0.246257 0.0574111 -3.13232
thorax -2.28326 0.0359378 -2.16012
lowerneck -8.59908 -4.35234 -6.54076
upperneck -12.797 -4.86011 6.15015
head -2.32425 -2.22516 3.11495
rclavicle 2.55935e-014 1.59028e-015
rhumerus 34.3877 -39.0994 -41.9531
rradius 46.2128
rwrist 15.9113
rhand -62.0781 352.178
rfingers 7.12502
rthumb -34.1278 -754.577
lclavicle 2.55935e-014 1.59028e-015
lhumerus -12.0584 -5.87333 80.4977
lradius 39.768
lwrist -10.652
lhand -26.6936 15.9057
lfingers 7.12502
lthumb -0.12418 45.8854
rfemur -0.270877 26.1605 12.1713
rtibia 11.5723
rfoot -12.3676 -22.3918
rtoes -10.0432
lfemur 0.902097 -13.9491 -8.77147
ltibia 10.9822
lfoot -11.9705 17.8887
ltoes -12.8132
2218
root 0.0441218 18.6599 6.03209 0.401721 12.3468 -0.818919
lowerback 4.54945 0.155259 -1.87812
upperback 0.172205 0.0350712 -3.28318
thorax -2.37429 0.0241079 -2.32864
lowerneck -8.43916 -4.30084 -6.47269
upperneck -12.6766 -4.81148 6.1055
head -2.31643 -2.20563 3.08916
rclavicle -6.80837e-015 -1.59028e-014
rhumerus 34.6582 -38.897 -41.6422
rradius 46.1745
rwrist 15.4108
rhand -62.5508 351.924
rfingers 7.12502
rthumb -34.5767 -754.73
lclavicle -6.80837e-015 -1.59028e-014
lhumerus -12.1292 -6.1542 80.761
lradius 39.767
lwrist -10.7712
lhand -26.8754 15.2182
lfingers 7.12502
lthumb -0.299729 45.1977
rfemur 0.00473133 26.0781 12.3192
rtibia 11.3579
rfoot -12.3974 -22.6564
rtoes -10.0296
lfemur 0.444404 -13.4726 -8.58997
ltibia 11.5743
lfoot -11.8896 17.0722
ltoes -12.8107
